{"asset":{"version":"2.0","generator":"THREE.GLTFExporter"},"scenes":[{"nodes":[0,1,2,3,4,5,6,7,8,12,16,17,18,19,20,21]}],"scene":0,"nodes":[{"matrix":[1,0,0,0,0,1,0,0,0,0,1,0,0,16,0,1],"mesh":0},{"matrix":[1,0,0,0,0,1,0,0,0,0,1,0,0,18.5,0,1],"mesh":1},{"matrix":[1,0,0,0,0,2.220446049250313e-16,1,0,0,-1,2.220446049250313e-16,0,0,12,5,1],"mesh":2},{"matrix":[1,0,0,0,0,1,0,0,0,0,1,0,-1.5,14,4.8,1],"mesh":3},{"matrix":[1,0,0,0,0,1,0,0,0,0,1,0,1.5,14,4.8,1],"mesh":3},{"matrix":[1,0,0,0,0,-1,1.2246467991473532e-16,0,0,-1.2246467991473532e-16,-1,0,0,10,4.5,1],"mesh":4},{"matrix":[1,0,0,0,0,1,0,0,0,0,1,0,0,2,6.5,1],"mesh":5},{"matrix":[1,0,0,0,0,1,0,0,0,0,1,0,0,0,6.5,1],"mesh":5},{"matrix":[1,0,0,0,0,1,0,0,0,0,1,0,0,-3,6.5,1],"mesh":5},{"matrix":[1,0,0,0,0,1,0,0,0,0,1,0,0,4,1,1],"mesh":7},{"matrix":[1,0,0,0,0,1,0,0,0,0,1,0,0,3,-1,1],"mesh":7},{"matrix":[1,0,0,0,0,1,0,0,0,0,1,0,0,2,0.5,1],"mesh":7},{"matrix":[0.6532814824381883,0.7071067811865475,0.27059805007309845,0,-0.6532814824381883,0.7071067811865475,-0.27059805007309845,0,-0.3826834323650897,0,0.9238795325112867,0,-8,0,0,1],"mesh":6,"children":[9,10,11]},{"matrix":[1,0,0,0,0,1,0,0,0,0,1,0,0,4,1,1],"mesh":7},{"matrix":[1,0,0,0,0,1,0,0,0,0,1,0,0,3,-1,1],"mesh":7},{"matrix":[1,0,0,0,0,1,0,0,0,0,1,0,0,2,0.5,1],"mesh":7},{"matrix":[0.6532814824381883,-0.7071067811865475,-0.27059805007309845,0,0.6532814824381883,0.7071067811865475,-0.27059805007309845,0,0.3826834323650897,0,0.9238795325112867,0,8,0,0,1],"mesh":6,"children":[13,14,15]},{"matrix":[1,0,0,0,0,1,0,0,0,0,1,0,0,12,0,1],"mesh":8},{"mesh":9},{"matrix":[1,0,0,0,0,1,0,0,0,0,1,0,0,-15,0,1],"mesh":10},{"matrix":[1,0,0,0,0,1,0,0,0,0,1,0,1,1,1,1],"extensions":{"KHR_lights_punctual":{"light":0}}},{}],"bufferViews":[{"buffer":0,"byteOffset":0,"byteLength":2352,"target":34962,"byteStride":12},{"buffer":0,"byteOffset":2352,"byteLength":2352,"target":34962,"byteStride":12},{"buffer":0,"byteOffset":4704,"byteLength":1568,"target":34962,"byteStride":8},{"buffer":0,"byteOffset":6272,"byteLength":768,"target":34963},{"buffer":0,"byteOffset":7040,"byteLength":2352,"target":34962,"byteStride":12},{"buffer":0,"byteOffset":9392,"byteLength":2352,"target":34962,"byteStride":12},{"buffer":0,"byteOffset":11744,"byteLength":1568,"target":34962,"byteStride":8},{"buffer":0,"byteOffset":13312,"byteLength":768,"target":34963},{"buffer":0,"byteOffset":14080,"byteLength":1572,"target":34962,"byteStride":12},{"buffer":0,"byteOffset":15652,"byteLength":1572,"target":34962,"byteStride":12},{"buffer":0,"byteOffset":17224,"byteLength":1048,"target":34962,"byteStride":8},{"buffer":0,"byteOffset":18272,"byteLength":576,"target":34963},{"buffer":0,"byteOffset":18848,"byteLength":13068,"target":34962,"byteStride":12},{"buffer":0,"byteOffset":31916,"byteLength":13068,"target":34962,"byteStride":12},{"buffer":0,"byteOffset":44984,"byteLength":8712,"target":34962,"byteStride":8},{"buffer":0,"byteOffset":53696,"byteLength":11904,"target":34963},{"buffer":0,"byteOffset":65600,"byteLength":756,"target":34962,"byteStride":12},{"buffer":0,"byteOffset":66356,"byteLength":756,"target":34962,"byteStride":12},{"buffer":0,"byteOffset":67112,"byteLength":504,"target":34962,"byteStride":8},{"buffer":0,"byteOffset":67616,"byteLength":480,"target":34963},{"buffer":0,"byteOffset":68096,"byteLength":13068,"target":34962,"byteStride":12},{"buffer":0,"byteOffset":81164,"byteLength":13068,"target":34962,"byteStride":12},{"buffer":0,"byteOffset":94232,"byteLength":8712,"target":34962,"byteStride":8},{"buffer":0,"byteOffset":102944,"byteLength":11904,"target":34963},{"buffer":0,"byteOffset":114848,"byteLength":624,"target":34962,"byteStride":12},{"buffer":0,"byteOffset":115472,"byteLength":624,"target":34962,"byteStride":12},{"buffer":0,"byteOffset":116096,"byteLength":416,"target":34962,"byteStride":8},{"buffer":0,"byteOffset":116512,"byteLength":192,"target":34963},{"buffer":0,"byteOffset":116704,"byteLength":288,"target":34962,"byteStride":12},{"buffer":0,"byteOffset":116992,"byteLength":288,"target":34962,"byteStride":12},{"buffer":0,"byteOffset":117280,"byteLength":192,"target":34962,"byteStride":8},{"buffer":0,"byteOffset":117472,"byteLength":72,"target":34963},{"buffer":0,"byteOffset":117544,"byteLength":13068,"target":34962,"byteStride":12},{"buffer":0,"byteOffset":130612,"byteLength":13068,"target":34962,"byteStride":12},{"buffer":0,"byteOffset":143680,"byteLength":8712,"target":34962,"byteStride":8},{"buffer":0,"byteOffset":152392,"byteLength":11904,"target":34963},{"buffer":0,"byteOffset":164296,"byteLength":13068,"target":34962,"byteStride":12},{"buffer":0,"byteOffset":177364,"byteLength":13068,"target":34962,"byteStride":12},{"buffer":0,"byteOffset":190432,"byteLength":8712,"target":34962,"byteStride":8},{"buffer":0,"byteOffset":199144,"byteLength":11904,"target":34963},{"buffer":0,"byteOffset":211048,"byteLength":13068,"target":34962,"byteStride":12},{"buffer":0,"byteOffset":224116,"byteLength":13068,"target":34962,"byteStride":12},{"buffer":0,"byteOffset":237184,"byteLength":8712,"target":34962,"byteStride":8},{"buffer":0,"byteOffset":245896,"byteLength":11904,"target":34963}],"buffers":[{"byteLength":257800,"uri":"data:application/octet-stream;base64,"}],"accessors":[{"bufferView":0,"componentType":5126,"count":196,"max":[5,0.5,5],"min":[-5,-0.5,-5],"type":"VEC3"},{"bufferView":1,"componentType":5126,"count":196,"max":[1,1,1],"min":[-1,-1,-1],"type":"VEC3"},{"bufferView":2,"componentType":5126,"count":196,"max":[1,1],"min":[0,0],"type":"VEC2"},{"bufferView":3,"componentType":5123,"count":384,"max":[195],"min":[0],"type":"SCALAR"},{"bufferView":4,"componentType":5126,"count":196,"max":[4,2.5,4],"min":[-4,-2.5,-4],"type":"VEC3"},{"bufferView":5,"componentType":5126,"count":196,"max":[0.9805806875228882,1,0.9805806875228882],"min":[-0.9805806875228882,-1,-0.9805806875228882],"type":"VEC3"},{"bufferView":6,"componentType":5126,"count":196,"max":[1,1],"min":[0,0],"type":"VEC2"},{"bufferView":7,"componentType":5123,"count":384,"max":[195],"min":[0],"type":"SCALAR"},{"bufferView":8,"componentType":5126,"count":131,"max":[0.5,1.5,0.5],"min":[-0.5,-1.5,-0.5],"type":"VEC3"},{"bufferView":9,"componentType":5126,"count":131,"max":[0.986393928527832,1,0.986393928527832],"min":[-0.986393928527832,-0.16439898312091827,-0.986393928527832],"type":"VEC3"},{"bufferView":10,"componentType":5126,"count":131,"max":[1,1],"min":[0,0],"type":"VEC2"},{"bufferView":11,"componentType":5123,"count":288,"max":[130],"min":[0],"type":"SCALAR"},{"bufferView":12,"componentType":5126,"count":1089,"max":[0.5,0.5,0.5],"min":[-0.5,-0.5,-0.5],"type":"VEC3"},{"bufferView":13,"componentType":5126,"count":1089,"max":[1,1,1],"min":[-1,-1,-1],"type":"VEC3"},{"bufferView":14,"componentType":5126,"count":1089,"max":[1.015625,1],"min":[-0.015625,0],"type":"VEC2"},{"bufferView":15,"componentType":5123,"count":5952,"max":[1088],"min":[0],"type":"SCALAR"},{"bufferView":16,"componentType":5126,"count":63,"max":[1.7000000476837158,1.7000000476837158,2.4492935397342132e-17],"min":[-1.7000000476837158,0,-4.8985870794684264e-17],"type":"VEC3"},{"bufferView":17,"componentType":5126,"count":63,"max":[1,1,1.2246468525851679e-16],"min":[-1,-1,-2.4492937051703357e-16],"type":"VEC3"},{"bufferView":18,"componentType":5126,"count":63,"max":[1,1],"min":[0,0],"type":"VEC2"},{"bufferView":19,"componentType":5123,"count":240,"max":[62],"min":[0],"type":"SCALAR"},{"bufferView":20,"componentType":5126,"count":1089,"max":[0.5,0.5,0.5],"min":[-0.5,-0.5,-0.5],"type":"VEC3"},{"bufferView":21,"componentType":5126,"count":1089,"max":[1,1,1],"min":[-1,-1,-1],"type":"VEC3"},{"bufferView":22,"componentType":5126,"count":1089,"max":[1.015625,1],"min":[-0.015625,0],"type":"VEC2"},{"bufferView":23,"componentType":5123,"count":5952,"max":[1088],"min":[0],"type":"SCALAR"},{"bufferView":24,"componentType":5126,"count":52,"max":[0.30000001192092896,5,0.30000001192092896],"min":[-0.30000001192092896,-5,-0.30000001192092896],"type":"VEC3"},{"bufferView":25,"componentType":5126,"count":52,"max":[1,1,1],"min":[-1,-1,-1],"type":"VEC3"},{"bufferView":26,"componentType":5126,"count":52,"max":[1,1],"min":[0,0],"type":"VEC2"},{"bufferView":27,"componentType":5123,"count":96,"max":[51],"min":[0],"type":"SCALAR"},{"bufferView":28,"componentType":5126,"count":24,"max":[0.10000000149011612,0.10000000149011612,1.5],"min":[-0.10000000149011612,-0.10000000149011612,-1.5],"type":"VEC3"},{"bufferView":29,"componentType":5126,"count":24,"max":[1,1,1],"min":[-1,-1,-1],"type":"VEC3"},{"bufferView":30,"componentType":5126,"count":24,"max":[1,1],"min":[0,0],"type":"VEC2"},{"bufferView":31,"componentType":5123,"count":36,"max":[23],"min":[0],"type":"SCALAR"},{"bufferView":32,"componentType":5126,"count":1089,"max":[5,5,5],"min":[-5,-5,-5],"type":"VEC3"},{"bufferView":33,"componentType":5126,"count":1089,"max":[1,1,1],"min":[-1,-1,-1],"type":"VEC3"},{"bufferView":34,"componentType":5126,"count":1089,"max":[1.015625,1],"min":[-0.015625,0],"type":"VEC2"},{"bufferView":35,"componentType":5123,"count":5952,"max":[1088],"min":[0],"type":"SCALAR"},{"bufferView":36,"componentType":5126,"count":1089,"max":[7,7,7],"min":[-7,-7,-7],"type":"VEC3"},{"bufferView":37,"componentType":5126,"count":1089,"max":[1,1,1],"min":[-1,-1,-1],"type":"VEC3"},{"bufferView":38,"componentType":5126,"count":1089,"max":[1.015625,1],"min":[-0.015625,0],"type":"VEC2"},{"bufferView":39,"componentType":5123,"count":5952,"max":[1088],"min":[0],"type":"SCALAR"},{"bufferView":40,"componentType":5126,"count":1089,"max":[10,10,10],"min":[-10,-10,-10],"type":"VEC3"},{"bufferView":41,"componentType":5126,"count":1089,"max":[1,1,1],"min":[-1,-1,-1],"type":"VEC3"},{"bufferView":42,"componentType":5126,"count":1089,"max":[1.015625,1],"min":[-0.015625,0],"type":"VEC2"},{"bufferView":43,"componentType":5123,"count":5952,"max":[1088],"min":[0],"type":"SCALAR"}],"materials":[{"pbrMetallicRoughness":{"baseColorFactor":[0.033104766565152086,0.033104766565152086,0.033104766565152086,1],"metallicFactor":0.5,"roughnessFactor":0.5}},{"pbrMetallicRoughness":{"baseColorFactor":[0.033104766565152086,0.033104766565152086,0.033104766565152086,1],"metallicFactor":0.5,"roughnessFactor":0.5}},{"pbrMetallicRoughness":{"baseColorFactor":[1,0.37626212298046485,0,1],"metallicFactor":0,"roughnessFactor":0.9},"extensions":{"KHR_materials_unlit":{}}},{"pbrMetallicRoughness":{"baseColorFactor":[0,0,0,1],"metallicFactor":0,"roughnessFactor":0.9},"extensions":{"KHR_materials_unlit":{}}},{"pbrMetallicRoughness":{"baseColorFactor":[0,0,0,1],"metallicFactor":0,"roughnessFactor":0.9},"extensions":{"KHR_materials_unlit":{}}},{"pbrMetallicRoughness":{"baseColorFactor":[0,0,0,1],"metallicFactor":0,"roughnessFactor":0.9},"extensions":{"KHR_materials_unlit":{}}},{"pbrMetallicRoughness":{"baseColorFactor":[0.25818285291079235,0.059511238155621766,0.006512090790025684,1],"metallicFactor":0.5,"roughnessFactor":0.5}},{"pbrMetallicRoughness":{"baseColorFactor":[0.25818285291079235,0.059511238155621766,0.006512090790025684,1],"metallicFactor":0.5,"roughnessFactor":0.5}},{"pbrMetallicRoughness":{"metallicFactor":0,"roughnessFactor":0.9},"extensions":{"KHR_materials_unlit":{}}},{"pbrMetallicRoughness":{"metallicFactor":0,"roughnessFactor":0.9},"extensions":{"KHR_materials_unlit":{}}},{"pbrMetallicRoughness":{"metallicFactor":0,"roughnessFactor":0.9},"extensions":{"KHR_materials_unlit":{}}}],"meshes":[{"primitives":[{"mode":4,"attributes":{"POSITION":0,"NORMAL":1,"TEXCOORD_0":2},"indices":3,"material":0}]},{"primitives":[{"mode":4,"attributes":{"POSITION":4,"NORMAL":5,"TEXCOORD_0":6},"indices":7,"material":1}]},{"primitives":[{"mode":4,"attributes":{"POSITION":8,"NORMAL":9,"TEXCOORD_0":10},"indices":11,"material":2}]},{"primitives":[{"mode":4,"attributes":{"POSITION":12,"NORMAL":13,"TEXCOORD_0":14},"indices":15,"material":3}]},{"primitives":[{"mode":4,"attributes":{"POSITION":16,"NORMAL":17,"TEXCOORD_0":18},"indices":19,"material":4}]},{"primitives":[{"mode":4,"attributes":{"POSITION":20,"NORMAL":21,"TEXCOORD_0":22},"indices":23,"material":5}]},{"primitives":[{"mode":4,"attributes":{"POSITION":24,"NORMAL":25,"TEXCOORD_0":26},"indices":27,"material":6}]},{"primitives":[{"mode":4,"attributes":{"POSITION":28,"NORMAL":29,"TEXCOORD_0":30},"indices":31,"material":7}]},{"primitives":[{"mode":4,"attributes":{"POSITION":32,"NORMAL":33,"TEXCOORD_0":34},"indices":35,"material":8}]},{"primitives":[{"mode":4,"attributes":{"POSITION":36,"NORMAL":37,"TEXCOORD_0":38},"indices":39,"material":9}]},{"primitives":[{"mode":4,"attributes":{"POSITION":40,"NORMAL":41,"TEXCOORD_0":42},"indices":43,"material":10}]}],"extensions":{"KHR_lights_punctual":{"lights":[{"color":[1,1,1],"intensity":0.5,"type":"directional"}]}},"extensionsUsed":["KHR_materials_unlit","KHR_lights_punctual"]}